<mxfile host="app.diagrams.net" modified="2024-01-30T01:09:48.492Z" agent="Mozilla/5.0 (Windows NT 10.0; Win64; x64) AppleWebKit/537.36 (KHTML, like Gecko) Chrome/121.0.0.0 Safari/537.36" etag="Kf0artVOMlpSecq8uMq4" version="23.0.2" type="device">
  <diagram id="C5RBs43oDa-KdzZeNtuy" name="Page-1">
    <mxGraphModel dx="1034" dy="690" grid="1" gridSize="10" guides="1" tooltips="1" connect="1" arrows="1" fold="1" page="1" pageScale="1" pageWidth="827" pageHeight="1169" math="0" shadow="0">
      <root>
        <mxCell id="WIyWlLk6GJQsqaUBKTNV-0" />
        <mxCell id="WIyWlLk6GJQsqaUBKTNV-1" parent="WIyWlLk6GJQsqaUBKTNV-0" />
        <mxCell id="YmXb3SF7MX5jrdh1UZXS-6" style="edgeStyle=orthogonalEdgeStyle;rounded=0;orthogonalLoop=1;jettySize=auto;html=1;exitX=0.5;exitY=1;exitDx=0;exitDy=0;" parent="WIyWlLk6GJQsqaUBKTNV-1" source="YmXb3SF7MX5jrdh1UZXS-1" edge="1">
          <mxGeometry relative="1" as="geometry">
            <mxPoint x="182" y="210" as="targetPoint" />
            <Array as="points">
              <mxPoint x="182" y="200" />
              <mxPoint x="182" y="200" />
            </Array>
          </mxGeometry>
        </mxCell>
        <mxCell id="YmXb3SF7MX5jrdh1UZXS-1" value="시작" style="ellipse;whiteSpace=wrap;html=1;" parent="WIyWlLk6GJQsqaUBKTNV-1" vertex="1">
          <mxGeometry x="67" y="140" width="230" height="40" as="geometry" />
        </mxCell>
        <mxCell id="YmXb3SF7MX5jrdh1UZXS-2" value="종료" style="ellipse;whiteSpace=wrap;html=1;" parent="WIyWlLk6GJQsqaUBKTNV-1" vertex="1">
          <mxGeometry x="66.5" y="585" width="230" height="40" as="geometry" />
        </mxCell>
        <mxCell id="3VL_phW6thT8LE2ICf1Q-5" value="" style="edgeStyle=orthogonalEdgeStyle;rounded=0;orthogonalLoop=1;jettySize=auto;html=1;" edge="1" parent="WIyWlLk6GJQsqaUBKTNV-1" source="YmXb3SF7MX5jrdh1UZXS-4" target="3VL_phW6thT8LE2ICf1Q-3">
          <mxGeometry relative="1" as="geometry" />
        </mxCell>
        <mxCell id="YmXb3SF7MX5jrdh1UZXS-4" value="a &amp;gt;= b" style="rhombus;whiteSpace=wrap;html=1;" parent="WIyWlLk6GJQsqaUBKTNV-1" vertex="1">
          <mxGeometry x="44.5" y="420" width="275" height="70" as="geometry" />
        </mxCell>
        <mxCell id="YmXb3SF7MX5jrdh1UZXS-12" style="edgeStyle=orthogonalEdgeStyle;rounded=0;orthogonalLoop=1;jettySize=auto;html=1;exitX=0.5;exitY=1;exitDx=0;exitDy=0;entryX=0.5;entryY=0;entryDx=0;entryDy=0;" parent="WIyWlLk6GJQsqaUBKTNV-1" source="YmXb3SF7MX5jrdh1UZXS-5" target="YmXb3SF7MX5jrdh1UZXS-2" edge="1">
          <mxGeometry relative="1" as="geometry" />
        </mxCell>
        <mxCell id="YmXb3SF7MX5jrdh1UZXS-5" value="t + &quot;초 입니다.&quot; 출력" style="shape=parallelogram;perimeter=parallelogramPerimeter;whiteSpace=wrap;html=1;fixedSize=1;" parent="WIyWlLk6GJQsqaUBKTNV-1" vertex="1">
          <mxGeometry x="62.5" y="513" width="245" height="50" as="geometry" />
        </mxCell>
        <mxCell id="YmXb3SF7MX5jrdh1UZXS-9" style="edgeStyle=orthogonalEdgeStyle;rounded=0;orthogonalLoop=1;jettySize=auto;html=1;exitX=0.5;exitY=1;exitDx=0;exitDy=0;entryX=0.473;entryY=-0.08;entryDx=0;entryDy=0;entryPerimeter=0;" parent="WIyWlLk6GJQsqaUBKTNV-1" edge="1">
          <mxGeometry relative="1" as="geometry">
            <mxPoint x="184.5" y="491" as="sourcePoint" />
            <mxPoint x="181.385" y="510" as="targetPoint" />
          </mxGeometry>
        </mxCell>
        <mxCell id="YmXb3SF7MX5jrdh1UZXS-13" value="시작&lt;br&gt;&lt;br&gt;h : 산의 높이&lt;br style=&quot;border-color: var(--border-color); color: rgb(0, 0, 0);&quot;&gt;&lt;span style=&quot;color: rgb(0, 0, 0);&quot;&gt;t : 시간&lt;/span&gt;&lt;br style=&quot;border-color: var(--border-color); color: rgb(0, 0, 0);&quot;&gt;&lt;span style=&quot;color: rgb(0, 0, 0);&quot;&gt;a : A의 고도&lt;/span&gt;&lt;br style=&quot;border-color: var(--border-color); color: rgb(0, 0, 0);&quot;&gt;&lt;span style=&quot;color: rgb(0, 0, 0);&quot;&gt;b : B의 고도&lt;/span&gt;&lt;br&gt;&lt;br&gt;h = 1753&lt;br&gt;a = 0&lt;br&gt;b = 1753&lt;br&gt;t=0&lt;br&gt;&lt;br&gt;a &amp;lt; b라면&lt;br&gt;t += 1&lt;br style=&quot;border-color: var(--border-color); color: rgb(0, 0, 0);&quot;&gt;&lt;span style=&quot;color: rgb(0, 0, 0);&quot;&gt;a += 0.75&lt;/span&gt;&lt;br style=&quot;border-color: var(--border-color); color: rgb(0, 0, 0);&quot;&gt;&lt;span style=&quot;color: rgb(0, 0, 0);&quot;&gt;b -= 1.03&lt;/span&gt;&lt;br style=&quot;border-color: var(--border-color);&quot;&gt;&lt;br&gt;a &amp;gt;= b&lt;br&gt;print(d + &quot;초입니다.&quot;)&lt;br&gt;&lt;br&gt;종료" style="text;html=1;strokeColor=#666666;fillColor=#f5f5f5;align=center;verticalAlign=middle;whiteSpace=wrap;rounded=0;fontColor=#333333;" parent="WIyWlLk6GJQsqaUBKTNV-1" vertex="1">
          <mxGeometry x="589" y="118" width="171" height="330" as="geometry" />
        </mxCell>
        <mxCell id="3VL_phW6thT8LE2ICf1Q-0" style="edgeStyle=orthogonalEdgeStyle;rounded=0;orthogonalLoop=1;jettySize=auto;html=1;exitX=0.5;exitY=1;exitDx=0;exitDy=0;entryX=0.5;entryY=0;entryDx=0;entryDy=0;" edge="1" parent="WIyWlLk6GJQsqaUBKTNV-1" source="YmXb3SF7MX5jrdh1UZXS-15" target="YmXb3SF7MX5jrdh1UZXS-22">
          <mxGeometry relative="1" as="geometry" />
        </mxCell>
        <mxCell id="YmXb3SF7MX5jrdh1UZXS-15" value="h : 산의 높이&lt;br&gt;t : 시간&lt;br&gt;a : A의 고도&lt;br&gt;b : B의 고도" style="shape=hexagon;perimeter=hexagonPerimeter2;whiteSpace=wrap;html=1;fixedSize=1;" parent="WIyWlLk6GJQsqaUBKTNV-1" vertex="1">
          <mxGeometry x="65" y="210" width="240" height="60" as="geometry" />
        </mxCell>
        <mxCell id="3VL_phW6thT8LE2ICf1Q-1" style="edgeStyle=orthogonalEdgeStyle;rounded=0;orthogonalLoop=1;jettySize=auto;html=1;exitX=0.5;exitY=1;exitDx=0;exitDy=0;entryX=0.5;entryY=0;entryDx=0;entryDy=0;" edge="1" parent="WIyWlLk6GJQsqaUBKTNV-1" source="YmXb3SF7MX5jrdh1UZXS-22" target="YmXb3SF7MX5jrdh1UZXS-4">
          <mxGeometry relative="1" as="geometry" />
        </mxCell>
        <mxCell id="YmXb3SF7MX5jrdh1UZXS-22" value="h = 1753&lt;br&gt;t = 0&lt;br&gt;a = 0&lt;br&gt;b = 1753" style="rounded=0;whiteSpace=wrap;html=1;" parent="WIyWlLk6GJQsqaUBKTNV-1" vertex="1">
          <mxGeometry x="102" y="309" width="160" height="70" as="geometry" />
        </mxCell>
        <mxCell id="3VL_phW6thT8LE2ICf1Q-2" value="YES" style="text;html=1;strokeColor=none;fillColor=none;align=center;verticalAlign=middle;whiteSpace=wrap;rounded=0;" vertex="1" parent="WIyWlLk6GJQsqaUBKTNV-1">
          <mxGeometry x="230" y="480" width="60" height="30" as="geometry" />
        </mxCell>
        <mxCell id="3VL_phW6thT8LE2ICf1Q-3" value="t += 1&lt;br&gt;a += 0.75&lt;br&gt;b -= 1.03" style="rounded=0;whiteSpace=wrap;html=1;" vertex="1" parent="WIyWlLk6GJQsqaUBKTNV-1">
          <mxGeometry x="380" y="417.5" width="154" height="75" as="geometry" />
        </mxCell>
        <mxCell id="3VL_phW6thT8LE2ICf1Q-7" value="" style="endArrow=classic;html=1;rounded=0;exitX=0.5;exitY=0;exitDx=0;exitDy=0;" edge="1" parent="WIyWlLk6GJQsqaUBKTNV-1">
          <mxGeometry width="50" height="50" relative="1" as="geometry">
            <mxPoint x="447" y="417.5" as="sourcePoint" />
            <mxPoint x="180" y="400" as="targetPoint" />
            <Array as="points">
              <mxPoint x="450" y="400" />
            </Array>
          </mxGeometry>
        </mxCell>
        <mxCell id="3VL_phW6thT8LE2ICf1Q-8" value="NO" style="text;html=1;strokeColor=none;fillColor=none;align=center;verticalAlign=middle;whiteSpace=wrap;rounded=0;" vertex="1" parent="WIyWlLk6GJQsqaUBKTNV-1">
          <mxGeometry x="310" y="420" width="60" height="30" as="geometry" />
        </mxCell>
      </root>
    </mxGraphModel>
  </diagram>
</mxfile>
